<svg xmlns="http://www.w3.org/2000/svg" width="300.0" height="660.0" viewBox="0 0 300.0 660.0" role="img" aria-label="Pre-A connectivity"><style>.prea-board{fill:none;stroke:#111827;stroke-width:1.8;}.prea-fixed-point{fill:#1d4ed8;stroke:#1e3a8a;stroke-width:1;}.prea-node{fill:#22c55e;stroke:#166534;stroke-width:1;}.prea-virtual-endpoint{fill:#f59e0b;stroke:#92400e;stroke-width:1;}.prea-rlc-pad{fill:#cbd5e1;stroke:#475569;stroke-width:0.7;opacity:0.9;}.prea-rlc-bbox{fill:none;stroke:#0f766e;stroke-width:0.8;stroke-dasharray:2 2;opacity:0.9;}.prea-assist-link{stroke:#475569;stroke-width:0.7;stroke-dasharray:2 2;opacity:0.95;}.prea-edge{fill:none;stroke-linecap:butt;stroke-linejoin:miter;opacity:0.95;}.prea-label{fill:#0f172a;font-family:Arial,sans-serif;font-size:9px;}</style><rect class="prea-board" x="30.00" y="30.00" width="240.00" height="600.00"/><line class="prea-edge" data-edge-id="C1R1_to_combiner" x1="153.84" y1="330.00" x2="153.84" y2="330.00" stroke="#334155" stroke-width="1.20"/><text class="prea-label" x="157.84" y="326.00">C1R1-&gt;combiner | w=0.0mm | L=n/a</text><line class="prea-edge" data-edge-id="IC1_pin1_seg1" x1="119.88" y1="360.00" x2="119.88" y2="394.50" stroke="#334155" stroke-width="21.60"/><text class="prea-label" x="123.88" y="373.25">p1_seg1 | w=3.6mm | L=5.8mm</text><line class="prea-edge" data-edge-id="IC1_pin1_seg2" x1="130.68" y1="370.86" x2="138.42" y2="370.86" stroke="#334155" stroke-width="11.28"/><text class="prea-label" x="138.55" y="366.86">p1_seg2 | w=1.9mm | L=1.3mm</text><line class="prea-edge" data-edge-id="IC1_pin1_seg2_to_R2" x1="138.42" y1="370.86" x2="138.42" y2="370.86" stroke="#334155" stroke-width="1.20"/><text class="prea-label" x="142.42" y="366.86">p1_seg2-&gt;R2 | w=0.0mm | L=n/a</text><line class="prea-edge" data-edge-id="IC1_pin1_seg3" x1="130.68" y1="384.90" x2="139.50" y2="384.90" stroke="#334155" stroke-width="7.62"/><text class="prea-label" x="139.09" y="380.90">p1_seg3 | w=1.3mm | L=1.5mm</text><line class="prea-edge" data-edge-id="IC1_pin1_seg3_to_C5" x1="139.50" y1="384.90" x2="139.50" y2="384.90" stroke="#334155" stroke-width="1.20"/><text class="prea-label" x="143.50" y="380.90">p1_seg3-&gt;C5 | w=0.0mm | L=n/a</text><line class="prea-edge" data-edge-id="IC1_pin1_seg4" x1="125.88" y1="394.50" x2="125.88" y2="422.52" stroke="#334155" stroke-width="9.60"/><text class="prea-label" x="129.88" y="404.51">p1_seg4 | w=1.6mm | L=4.7mm</text><line class="prea-edge" data-edge-id="IC1_pin1_seg4_to_C1R1" x1="125.88" y1="422.52" x2="125.88" y2="422.52" stroke="#334155" stroke-width="1.20"/><text class="prea-label" x="129.88" y="418.52">p1_seg4-&gt;C1R1 | w=0.0mm | L=n/a</text><line class="prea-edge" data-edge-id="IC1_pin1_seg5" x1="153.84" y1="330.00" x2="182.16" y2="330.00" stroke="#334155" stroke-width="6.60"/><text class="prea-label" x="172.00" y="326.00">p1_seg5 | w=1.1mm | L=4.7mm</text><line class="prea-edge" data-edge-id="IC1_pin1_seg6" x1="270.00" y1="630.00" x2="240.00" y2="630.00" stroke="#334155" stroke-width="6.60"/><text class="prea-label" x="259.00" y="626.00">p1_seg6 | w=1.1mm | L=20.0mm</text><line class="prea-edge" data-edge-id="IC1_pin2_seg1" x1="85.32" y1="360.00" x2="85.32" y2="394.50" stroke="#334155" stroke-width="23.40"/><text class="prea-label" x="89.32" y="373.25">p2_seg1 | w=3.9mm | L=5.8mm</text><line class="prea-edge" data-edge-id="IC1_pin2_seg2" x1="73.62" y1="372.84" x2="65.88" y2="372.84" stroke="#334155" stroke-width="11.28"/><text class="prea-label" x="73.75" y="368.84">p2_seg2 | w=1.9mm | L=1.3mm</text><line class="prea-edge" data-edge-id="IC1_pin2_seg2_to_C3" x1="65.88" y1="372.84" x2="65.88" y2="372.84" stroke="#334155" stroke-width="1.20"/><text class="prea-label" x="69.88" y="368.84">p2_seg2-&gt;C3 | w=0.0mm | L=n/a</text><line class="prea-edge" data-edge-id="IC1_pin2_seg3" x1="73.62" y1="385.56" x2="64.80" y2="385.56" stroke="#334155" stroke-width="7.62"/><text class="prea-label" x="73.21" y="381.56">p2_seg3 | w=1.3mm | L=1.5mm</text><line class="prea-edge" data-edge-id="IC1_pin2_seg3_to_C6" x1="64.80" y1="385.56" x2="64.80" y2="385.56" stroke="#334155" stroke-width="1.20"/><text class="prea-label" x="68.80" y="381.56">p2_seg3-&gt;C6 | w=0.0mm | L=n/a</text><line class="prea-edge" data-edge-id="IC1_pin2_seg4" x1="85.32" y1="394.50" x2="85.32" y2="422.52" stroke="#334155" stroke-width="9.60"/><text class="prea-label" x="89.32" y="404.51">p2_seg4 | w=1.6mm | L=4.7mm</text><line class="prea-edge" data-edge-id="IC1_pin2_seg5" x1="152.70" y1="317.18" x2="174.00" y2="335.02" stroke="#334155" stroke-width="6.60"/><text class="prea-label" x="167.35" y="322.10">p2_seg5 | w=1.1mm | L=4.6mm</text><line class="prea-edge" data-edge-id="IC1_pin2_seg6" x1="270.00" y1="30.00" x2="240.00" y2="30.00" stroke="#334155" stroke-width="6.60"/><text class="prea-label" x="259.00" y="26.00">p2_seg6 | w=1.1mm | L=20.0mm</text><line class="prea-edge" data-edge-id="PWR_VDD_bus" x1="120.00" y1="150.00" x2="119.88" y2="300.00" stroke="#334155" stroke-width="21.60"/><text class="prea-label" x="123.94" y="221.00">PWR_VDD_bus | w=3.6mm | L=25.5mm</text><line class="prea-edge" data-edge-id="R2_to_TP1" x1="120.00" y1="630.00" x2="60.00" y2="630.00" stroke="#334155" stroke-width="3.48"/><text class="prea-label" x="94.00" y="626.00">R2-&gt;TP1 | w=0.6mm | L=10.0mm</text><line class="prea-edge" data-edge-id="R3_to_combiner" x1="152.70" y1="317.18" x2="152.70" y2="317.18" stroke="#334155" stroke-width="1.20"/><text class="prea-label" x="156.70" y="313.18">R3-&gt;combiner | w=0.0mm | L=n/a</text><line class="prea-edge" data-edge-id="RF_INPUT_to_IC1" x1="180.00" y1="30.00" x2="85.32" y2="300.00" stroke="#334155" stroke-width="21.60"/><text class="prea-label" x="136.66" y="161.00">RF_INPUT-&gt;IC1 | w=3.6mm | L=80.0mm</text><path class="prea-rlc-bbox" d="M 127.58,426.76 L 157.60,327.41 L 152.14,325.76 L 122.12,425.11 Z"><title>C1</title></path><polygon class="prea-rlc-pad" points="127.46,426.73 129.53,419.89 124.30,418.31 122.23,425.15"><title>C1.PIN_1</title></polygon><polygon class="prea-rlc-pad" points="155.42,334.21 157.49,327.37 152.26,325.79 150.19,332.63"><title>C1.PIN_2</title></polygon><path class="prea-rlc-bbox" d="M 127.52,426.43 L 157.37,327.65 L 152.20,326.09 L 122.35,424.87 Z"><title>R1</title></path><polygon class="prea-rlc-pad" points="127.40,426.40 129.30,420.14 124.36,418.64 122.46,424.90"><title>R1.PIN_1</title></polygon><polygon class="prea-rlc-pad" points="155.36,333.88 157.26,327.62 152.32,326.12 150.42,332.38"><title>R1.PIN_2</title></polygon><path class="prea-rlc-bbox" d="M 178.42,327.37 L 268.27,634.23 L 273.74,632.63 L 183.89,325.77 Z"><title>C2</title></path><polygon class="prea-rlc-pad" points="178.54,327.34 180.54,334.19 185.78,332.66 183.78,325.81"><title>C2.PIN_1</title></polygon><polygon class="prea-rlc-pad" points="266.38,627.34 268.38,634.19 273.62,632.66 271.62,625.81"><title>C2.PIN_2</title></polygon><path class="prea-rlc-bbox" d="M 122.79,633.12 L 141.62,368.17 L 135.63,367.74 L 116.80,632.69 Z"><title>R2</title></path><polygon class="prea-rlc-pad" points="117.48,626.90 117.07,632.71 122.52,633.10 122.93,627.29"><title>R2.PIN_1</title></polygon><polygon class="prea-rlc-pad" points="140.94,373.96 141.35,368.15 135.90,367.76 135.49,373.57"><title>R2.PIN_2</title></polygon><path class="prea-rlc-bbox" d="M 60.63,375.69 L 71.13,375.69 L 71.13,369.99 L 60.63,369.99 Z"><title>C3</title></path><polygon class="prea-rlc-pad" points="62.31,375.57 69.45,375.57 69.45,370.11 62.31,370.11"><title>C3.PIN_1</title></polygon><path class="prea-rlc-bbox" d="M 85.83,426.73 L 156.74,315.88 L 152.19,312.97 L 81.28,423.82 Z"><title>R3</title></path><polygon class="prea-rlc-pad" points="85.73,426.66 89.26,421.16 84.91,418.38 81.38,423.88"><title>R3.PIN_1</title></polygon><polygon class="prea-rlc-pad" points="153.12,321.33 156.64,315.82 152.29,313.04 148.77,318.55"><title>R3.PIN_2</title></polygon><path class="prea-rlc-bbox" d="M 175.98,338.70 L 273.74,28.12 L 268.01,26.32 L 170.26,336.90 Z"><title>C4</title></path><polygon class="prea-rlc-pad" points="172.27,331.43 170.52,336.98 175.73,338.62 177.47,333.07"><title>C4.PIN_1</title></polygon><polygon class="prea-rlc-pad" points="271.73,33.60 273.48,28.04 268.27,26.40 266.52,31.96"><title>C4.PIN_2</title></polygon><path class="prea-rlc-bbox" d="M 134.25,387.75 L 144.75,387.75 L 144.75,382.05 L 134.25,382.05 Z"><title>C5</title></path><polygon class="prea-rlc-pad" points="135.93,387.63 143.07,387.63 143.07,382.17 135.93,382.17"><title>C5.PIN_1</title></polygon><path class="prea-rlc-bbox" d="M 59.25,388.56 L 70.35,388.56 L 70.35,382.56 L 59.25,382.56 Z"><title>C6</title></path><polygon class="prea-rlc-pad" points="61.89,388.29 67.71,388.29 67.71,382.83 61.89,382.83"><title>C6.PIN_2</title></polygon><polygon class="prea-virtual-endpoint" points="125.88,418.72 129.68,422.52 125.88,426.32 122.08,422.52"/><text class="prea-label" x="129.88" y="418.52">C1.1</text><polygon class="prea-virtual-endpoint" points="125.88,418.72 129.68,422.52 125.88,426.32 122.08,422.52"/><text class="prea-label" x="129.88" y="418.52">C1.1,R1.1</text><polygon class="prea-virtual-endpoint" points="153.84,326.20 157.64,330.00 153.84,333.80 150.04,330.00"/><text class="prea-label" x="157.84" y="326.00">C1.2</text><polygon class="prea-virtual-endpoint" points="153.84,326.20 157.64,330.00 153.84,333.80 150.04,330.00"/><text class="prea-label" x="157.84" y="326.00">C1.2,R1.2</text><polygon class="prea-virtual-endpoint" points="182.16,326.20 185.96,330.00 182.16,333.80 178.36,330.00"/><text class="prea-label" x="186.16" y="326.00">C2.1</text><polygon class="prea-virtual-endpoint" points="270.00,626.20 273.80,630.00 270.00,633.80 266.20,630.00"/><text class="prea-label" x="274.00" y="626.00">C2.2</text><polygon class="prea-virtual-endpoint" points="65.88,369.04 69.68,372.84 65.88,376.64 62.08,372.84"/><text class="prea-label" x="69.88" y="368.84">C3.1</text><polygon class="prea-virtual-endpoint" points="174.00,331.22 177.80,335.02 174.00,338.82 170.20,335.02"/><text class="prea-label" x="178.00" y="331.02">C4.1</text><polygon class="prea-virtual-endpoint" points="270.00,26.20 273.80,30.00 270.00,33.80 266.20,30.00"/><text class="prea-label" x="274.00" y="26.00">C4.2</text><polygon class="prea-virtual-endpoint" points="139.50,381.10 143.30,384.90 139.50,388.70 135.70,384.90"/><text class="prea-label" x="143.50" y="380.90">C5.1</text><polygon class="prea-virtual-endpoint" points="64.80,381.76 68.60,385.56 64.80,389.36 61.00,385.56"/><text class="prea-label" x="68.80" y="381.56">C6.2</text><circle class="prea-fixed-point" cx="119.88" cy="360.00" r="3.2"/><text class="prea-label" x="123.88" y="356.00">IC1.1</text><circle class="prea-fixed-point" cx="85.32" cy="360.00" r="3.2"/><text class="prea-label" x="89.32" y="356.00">IC1.2</text><circle class="prea-fixed-point" cx="85.32" cy="300.00" r="3.2"/><text class="prea-label" x="89.32" y="296.00">IC1.3</text><circle class="prea-fixed-point" cx="119.88" cy="300.00" r="3.2"/><text class="prea-label" x="123.88" y="296.00">IC1.4</text><circle class="prea-node" cx="119.88" cy="394.50" r="2.8"/><circle class="prea-node" cx="138.42" cy="370.86" r="2.8"/><circle class="prea-node" cx="125.88" cy="422.52" r="2.8"/><circle class="prea-node" cx="153.84" cy="330.00" r="2.8"/><circle class="prea-node" cx="85.32" cy="394.50" r="2.8"/><circle class="prea-node" cx="65.88" cy="372.84" r="2.8"/><circle class="prea-node" cx="64.80" cy="385.56" r="2.8"/><circle class="prea-node" cx="152.70" cy="317.18" r="2.8"/><polygon class="prea-virtual-endpoint" points="125.88,418.72 129.68,422.52 125.88,426.32 122.08,422.52"/><text class="prea-label" x="129.88" y="418.52">R1.1</text><polygon class="prea-virtual-endpoint" points="153.84,326.20 157.64,330.00 153.84,333.80 150.04,330.00"/><text class="prea-label" x="157.84" y="326.00">R1.2</text><polygon class="prea-virtual-endpoint" points="120.00,626.20 123.80,630.00 120.00,633.80 116.20,630.00"/><text class="prea-label" x="124.00" y="626.00">R2.1</text><polygon class="prea-virtual-endpoint" points="138.42,367.06 142.22,370.86 138.42,374.66 134.62,370.86"/><text class="prea-label" x="142.42" y="366.86">R2.2</text><polygon class="prea-virtual-endpoint" points="85.32,418.72 89.12,422.52 85.32,426.32 81.52,422.52"/><text class="prea-label" x="89.32" y="418.52">R3.1</text><polygon class="prea-virtual-endpoint" points="152.70,313.38 156.50,317.18 152.70,320.98 148.90,317.18"/><text class="prea-label" x="156.70" y="313.18">R3.2</text><circle class="prea-fixed-point" cx="60.00" cy="630.00" r="3.2"/><text class="prea-label" x="64.00" y="626.00">TP1.1</text><circle class="prea-fixed-point" cx="120.00" cy="150.00" r="3.2"/><text class="prea-label" x="124.00" y="146.00">TP2.1</text><circle class="prea-fixed-point" cx="180.00" cy="30.00" r="3.2"/><text class="prea-label" x="184.00" y="26.00">TP3.1</text><circle class="prea-fixed-point" cx="240.00" cy="630.00" r="3.2"/><text class="prea-label" x="244.00" y="626.00">TP4.1</text><circle class="prea-fixed-point" cx="240.00" cy="30.00" r="3.2"/><text class="prea-label" x="244.00" y="26.00">TP5.1</text><text x="6" y="26" font-family="sans-serif" font-size="9" font-weight="bold" fill="#7c3aed">[Pre-A] YAML-defined physical connectivity + UV footprints (no routing)</text></svg>