<svg xmlns="http://www.w3.org/2000/svg" viewBox="0 0 300.0 570.0" width="300.0" height="570.0"><rect x="0" y="0" width="100%" height="100%" fill="#f8fafc"/><rect x="30.00" y="30.00" width="240.00" height="510.00" fill="#ffffff" stroke="#475569" stroke-width="1.2"/><rect x="85.32" y="300.00" width="34.56" height="60.00" fill="#fde68a" stroke="#92400e" stroke-width="0.8" opacity="0.6"/><text x="85.32" y="298.00" font-family="sans-serif" font-size="9" fill="#92400e">IC1</text><circle cx="120.00" cy="150.00" r="2" fill="#92400e"/><text x="123.00" y="147.00" font-family="sans-serif" font-size="8" fill="#92400e">TP2</text><circle cx="180.00" cy="30.00" r="2" fill="#92400e"/><text x="183.00" y="27.00" font-family="sans-serif" font-size="8" fill="#92400e">TP3</text><circle cx="240.00" cy="540.00" r="2" fill="#92400e"/><text x="243.00" y="537.00" font-family="sans-serif" font-size="8" fill="#92400e">TP4</text><circle cx="198.00" cy="540.00" r="2" fill="#92400e"/><text x="201.00" y="537.00" font-family="sans-serif" font-size="8" fill="#92400e">TP5</text><circle cx="126.00" cy="422.40" r="2" fill="#92400e"/><circle cx="134.40" cy="422.40" r="2" fill="#92400e"/><text x="133.20" y="419.40" font-family="sans-serif" font-size="8" fill="#92400e">C1</text><circle cx="153.60" cy="444.00" r="2" fill="#92400e"/><circle cx="153.60" cy="451.20" r="2" fill="#92400e"/><text x="156.60" y="444.60" font-family="sans-serif" font-size="8" fill="#92400e">C2</text><circle cx="112.80" cy="442.80" r="2" fill="#92400e"/><circle cx="112.80" cy="451.20" r="2" fill="#92400e"/><text x="115.80" y="444.00" font-family="sans-serif" font-size="8" fill="#92400e">C4</text><circle cx="128.58" cy="400.32" r="2" fill="#92400e"/><circle cx="137.34" cy="400.32" r="2" fill="#92400e"/><text x="135.96" y="397.32" font-family="sans-serif" font-size="8" fill="#92400e">R1</text><circle cx="85.20" cy="422.40" r="2" fill="#92400e"/><circle cx="93.60" cy="422.40" r="2" fill="#92400e"/><text x="92.40" y="419.40" font-family="sans-serif" font-size="8" fill="#92400e">R3</text><circle cx="87.93" cy="400.32" r="2" fill="#92400e"/><circle cx="96.15" cy="400.32" r="2" fill="#92400e"/><text x="95.04" y="397.32" font-family="sans-serif" font-size="8" fill="#92400e">C3</text><circle cx="139.20" cy="385.20" r="2" fill="#92400e"/><circle cx="147.42" cy="385.20" r="2" fill="#92400e"/><text x="146.31" y="382.20" font-family="sans-serif" font-size="8" fill="#92400e">C5</text><circle cx="69.00" cy="396.33" r="2" fill="#92400e"/><circle cx="69.00" cy="387.93" r="2" fill="#92400e"/><text x="72.00" y="389.13" font-family="sans-serif" font-size="8" fill="#92400e">C6</text><circle cx="138.00" cy="373.20" r="2" fill="#92400e"/><circle cx="146.22" cy="373.20" r="2" fill="#92400e"/><text x="145.11" y="370.20" font-family="sans-serif" font-size="8" fill="#92400e">C7</text><path d="M 56.31,366.09 L 148.89,366.09 L 148.89,293.91 L 56.31,293.91 Z" class="component-bbox" fill="none" stroke="#0f766e" stroke-width="0.8" stroke-dasharray="2 2" opacity="0.85"/><path d="M 124.95,425.25 L 135.45,425.25 L 135.45,419.55 L 124.95,419.55 Z" class="component-bbox" fill="none" stroke="#0f766e" stroke-width="0.8" stroke-dasharray="2 2" opacity="0.85"/><path d="M 150.75,442.35 L 150.75,452.85 L 156.45,452.85 L 156.45,442.35 Z" class="component-bbox" fill="none" stroke="#0f766e" stroke-width="0.8" stroke-dasharray="2 2" opacity="0.85"/><path d="M 109.80,441.45 L 109.80,452.55 L 115.80,452.55 L 115.80,441.45 Z" class="component-bbox" fill="none" stroke="#0f766e" stroke-width="0.8" stroke-dasharray="2 2" opacity="0.85"/><path d="M 127.56,403.02 L 138.36,403.02 L 138.36,397.62 L 127.56,397.62 Z" class="component-bbox" fill="none" stroke="#0f766e" stroke-width="0.8" stroke-dasharray="2 2" opacity="0.85"/><path d="M 84.00,425.10 L 94.80,425.10 L 94.80,419.70 L 84.00,419.70 Z" class="component-bbox" fill="none" stroke="#0f766e" stroke-width="0.8" stroke-dasharray="2 2" opacity="0.85"/><path d="M 86.79,403.17 L 97.29,403.17 L 97.29,397.47 L 86.79,397.47 Z" class="component-bbox" fill="none" stroke="#0f766e" stroke-width="0.8" stroke-dasharray="2 2" opacity="0.85"/><path d="M 138.06,388.05 L 148.56,388.05 L 148.56,382.35 L 138.06,382.35 Z" class="component-bbox" fill="none" stroke="#0f766e" stroke-width="0.8" stroke-dasharray="2 2" opacity="0.85"/><path d="M 72.00,397.68 L 72.00,386.58 L 66.00,386.58 L 66.00,397.68 Z" class="component-bbox" fill="none" stroke="#0f766e" stroke-width="0.8" stroke-dasharray="2 2" opacity="0.85"/><path d="M 136.86,376.05 L 147.36,376.05 L 147.36,370.35 L 136.86,370.35 Z" class="component-bbox" fill="none" stroke="#0f766e" stroke-width="0.8" stroke-dasharray="2 2" opacity="0.85"/><polygon points="108.75,348.48 108.75,371.52 131.01,371.52 131.01,348.48" fill="#cbd5e1" stroke="#475569" stroke-width="0.6" opacity="0.85"><title>IC1.PIN_1</title></polygon><polygon points="74.19,348.48 74.19,371.52 96.45,371.52 96.45,348.48" fill="#cbd5e1" stroke="#475569" stroke-width="0.6" opacity="0.85"><title>IC1.PIN_2</title></polygon><polygon points="96.45,311.52 96.45,288.48 74.19,288.48 74.19,311.52" fill="#cbd5e1" stroke="#475569" stroke-width="0.6" opacity="0.85"><title>IC1.PIN_3</title></polygon><polygon points="131.01,311.52 131.01,288.48 108.75,288.48 108.75,311.52" fill="#cbd5e1" stroke="#475569" stroke-width="0.6" opacity="0.85"><title>IC1.PIN_4</title></polygon><polygon points="122.43,425.13 129.57,425.13 129.57,419.67 122.43,419.67" fill="#cbd5e1" stroke="#475569" stroke-width="0.6" opacity="0.85"><title>C1.PIN_1</title></polygon><polygon points="130.83,425.13 137.97,425.13 137.97,419.67 130.83,419.67" fill="#cbd5e1" stroke="#475569" stroke-width="0.6" opacity="0.85"><title>C1.PIN_2</title></polygon><polygon points="150.87,440.43 150.87,447.57 156.33,447.57 156.33,440.43" fill="#cbd5e1" stroke="#475569" stroke-width="0.6" opacity="0.85"><title>C2.PIN_1</title></polygon><polygon points="150.87,447.63 150.87,454.77 156.33,454.77 156.33,447.63" fill="#cbd5e1" stroke="#475569" stroke-width="0.6" opacity="0.85"><title>C2.PIN_2</title></polygon><polygon points="115.53,445.71 115.53,439.89 110.07,439.89 110.07,445.71" fill="#cbd5e1" stroke="#475569" stroke-width="0.6" opacity="0.85"><title>C4.PIN_1</title></polygon><polygon points="110.07,448.29 110.07,454.11 115.53,454.11 115.53,448.29" fill="#cbd5e1" stroke="#475569" stroke-width="0.6" opacity="0.85"><title>C4.PIN_2</title></polygon><polygon points="125.31,402.90 131.85,402.90 131.85,397.74 125.31,397.74" fill="#cbd5e1" stroke="#475569" stroke-width="0.6" opacity="0.85"><title>R1.PIN_1</title></polygon><polygon points="134.07,402.90 140.61,402.90 140.61,397.74 134.07,397.74" fill="#cbd5e1" stroke="#475569" stroke-width="0.6" opacity="0.85"><title>R1.PIN_2</title></polygon><polygon points="81.93,424.98 88.47,424.98 88.47,419.82 81.93,419.82" fill="#cbd5e1" stroke="#475569" stroke-width="0.6" opacity="0.85"><title>R3.PIN_1</title></polygon><polygon points="90.33,424.98 96.87,424.98 96.87,419.82 90.33,419.82" fill="#cbd5e1" stroke="#475569" stroke-width="0.6" opacity="0.85"><title>R3.PIN_2</title></polygon><polygon points="84.36,403.05 91.50,403.05 91.50,397.59 84.36,397.59" fill="#cbd5e1" stroke="#475569" stroke-width="0.6" opacity="0.85"><title>C3.PIN_1</title></polygon><polygon points="92.58,403.05 99.72,403.05 99.72,397.59 92.58,397.59" fill="#cbd5e1" stroke="#475569" stroke-width="0.6" opacity="0.85"><title>C3.PIN_2</title></polygon><polygon points="135.63,387.93 142.77,387.93 142.77,382.47 135.63,382.47" fill="#cbd5e1" stroke="#475569" stroke-width="0.6" opacity="0.85"><title>C5.PIN_1</title></polygon><polygon points="143.85,387.93 150.99,387.93 150.99,382.47 143.85,382.47" fill="#cbd5e1" stroke="#475569" stroke-width="0.6" opacity="0.85"><title>C5.PIN_2</title></polygon><polygon points="66.27,393.42 66.27,399.24 71.73,399.24 71.73,393.42" fill="#cbd5e1" stroke="#475569" stroke-width="0.6" opacity="0.85"><title>C6.PIN_1</title></polygon><polygon points="71.73,390.84 71.73,385.02 66.27,385.02 66.27,390.84" fill="#cbd5e1" stroke="#475569" stroke-width="0.6" opacity="0.85"><title>C6.PIN_2</title></polygon><polygon points="134.43,375.93 141.57,375.93 141.57,370.47 134.43,370.47" fill="#cbd5e1" stroke="#475569" stroke-width="0.6" opacity="0.85"><title>C7.PIN_1</title></polygon><polygon points="142.65,375.93 149.79,375.93 149.79,370.47 142.65,370.47" fill="#cbd5e1" stroke="#475569" stroke-width="0.6" opacity="0.85"><title>C7.PIN_2</title></polygon><polyline points="85.20,360.00 85.20,394.80" fill="none" stroke="#dc2626" stroke-width="23.40" stroke-linecap="butt" stroke-linejoin="miter" opacity="0.78"/><circle cx="85.20" cy="360.00" r="3" fill="none" stroke="#dc2626" stroke-width="1.0" opacity="0.7"/><circle cx="85.20" cy="394.80" r="3" fill="none" stroke="#dc2626" stroke-width="1.0" opacity="0.7"/><text x="88.20" y="391.80" font-family="sans-serif" font-size="6" fill="#dc2626" opacity="0.85">p2s1</text><polyline points="120.00,360.00 120.00,394.80" fill="none" stroke="#dc2626" stroke-width="21.60" stroke-linecap="butt" stroke-linejoin="miter" opacity="0.78"/><circle cx="120.00" cy="360.00" r="3" fill="none" stroke="#dc2626" stroke-width="1.0" opacity="0.7"/><circle cx="120.00" cy="394.80" r="3" fill="none" stroke="#dc2626" stroke-width="1.0" opacity="0.7"/><text x="123.00" y="391.80" font-family="sans-serif" font-size="6" fill="#dc2626" opacity="0.85">p1s1</text><polyline points="126.00,394.80 126.00,422.40" fill="none" stroke="#dc2626" stroke-width="9.60" stroke-linecap="butt" stroke-linejoin="miter" opacity="0.78"/><circle cx="126.00" cy="394.80" r="3" fill="none" stroke="#dc2626" stroke-width="1.0" opacity="0.7"/><circle cx="126.00" cy="422.40" r="3" fill="none" stroke="#dc2626" stroke-width="1.0" opacity="0.7"/><text x="129.00" y="419.40" font-family="sans-serif" font-size="6" fill="#dc2626" opacity="0.85">p1s4</text><polyline points="85.20,394.80 85.20,422.40" fill="none" stroke="#dc2626" stroke-width="9.60" stroke-linecap="butt" stroke-linejoin="miter" opacity="0.78"/><circle cx="85.20" cy="394.80" r="3" fill="none" stroke="#dc2626" stroke-width="1.0" opacity="0.7"/><circle cx="85.20" cy="422.40" r="3" fill="none" stroke="#dc2626" stroke-width="1.0" opacity="0.7"/><text x="88.20" y="419.40" font-family="sans-serif" font-size="6" fill="#dc2626" opacity="0.85">p2s4</text><polyline points="130.80,373.20 138.00,373.20" fill="none" stroke="#dc2626" stroke-width="11.28" stroke-linecap="butt" stroke-linejoin="miter" opacity="0.78"/><circle cx="130.80" cy="373.20" r="3" fill="none" stroke="#dc2626" stroke-width="1.0" opacity="0.7"/><circle cx="138.00" cy="373.20" r="3" fill="none" stroke="#dc2626" stroke-width="1.0" opacity="0.7"/><text x="141.00" y="370.20" font-family="sans-serif" font-size="6" fill="#dc2626" opacity="0.85">p1s2</text><polyline points="73.20,373.20 66.00,373.20" fill="none" stroke="#dc2626" stroke-width="11.28" stroke-linecap="butt" stroke-linejoin="miter" opacity="0.78"/><circle cx="73.20" cy="373.20" r="3" fill="none" stroke="#dc2626" stroke-width="1.0" opacity="0.7"/><circle cx="66.00" cy="373.20" r="3" fill="none" stroke="#dc2626" stroke-width="1.0" opacity="0.7"/><text x="69.00" y="370.20" font-family="sans-serif" font-size="6" fill="#dc2626" opacity="0.85">p2s2</text><polyline points="134.40,422.40 153.60,441.60 153.60,444.00" fill="none" stroke="#dc2626" stroke-width="6.60" stroke-linecap="butt" stroke-linejoin="miter" opacity="0.78"/><circle cx="134.40" cy="422.40" r="3" fill="none" stroke="#dc2626" stroke-width="1.0" opacity="0.7"/><circle cx="153.60" cy="444.00" r="3" fill="none" stroke="#dc2626" stroke-width="1.0" opacity="0.7"/><text x="156.60" y="438.60" font-family="sans-serif" font-size="6" fill="#dc2626" opacity="0.85">p1s5</text><polyline points="93.60,422.40 112.80,441.60 112.80,442.80" fill="none" stroke="#dc2626" stroke-width="6.60" stroke-linecap="butt" stroke-linejoin="miter" opacity="0.78"/><circle cx="93.60" cy="422.40" r="3" fill="none" stroke="#dc2626" stroke-width="1.0" opacity="0.7"/><circle cx="112.80" cy="442.80" r="3" fill="none" stroke="#dc2626" stroke-width="1.0" opacity="0.7"/><text x="115.80" y="438.60" font-family="sans-serif" font-size="6" fill="#dc2626" opacity="0.85">p2s5</text><polyline points="130.80,385.20 139.20,385.20" fill="none" stroke="#dc2626" stroke-width="7.62" stroke-linecap="butt" stroke-linejoin="miter" opacity="0.78"/><circle cx="130.80" cy="385.20" r="3" fill="none" stroke="#dc2626" stroke-width="1.0" opacity="0.7"/><circle cx="139.20" cy="385.20" r="3" fill="none" stroke="#dc2626" stroke-width="1.0" opacity="0.7"/><text x="142.20" y="382.20" font-family="sans-serif" font-size="6" fill="#dc2626" opacity="0.85">p1s3</text><polyline points="73.20,385.20 64.80,385.20" fill="none" stroke="#dc2626" stroke-width="7.62" stroke-linecap="butt" stroke-linejoin="miter" opacity="0.78"/><circle cx="73.20" cy="385.20" r="3" fill="none" stroke="#dc2626" stroke-width="1.0" opacity="0.7"/><circle cx="64.80" cy="385.20" r="3" fill="none" stroke="#dc2626" stroke-width="1.0" opacity="0.7"/><text x="67.80" y="382.20" font-family="sans-serif" font-size="6" fill="#dc2626" opacity="0.85">p2s3</text><polyline points="180.00,30.00 180.00,73.20 85.20,168.00 85.20,300.00" fill="none" stroke="#dc2626" stroke-width="21.60" stroke-linecap="butt" stroke-linejoin="miter" opacity="0.78"/><circle cx="180.00" cy="30.00" r="3" fill="none" stroke="#dc2626" stroke-width="1.0" opacity="0.7"/><circle cx="85.20" cy="300.00" r="3" fill="none" stroke="#dc2626" stroke-width="1.0" opacity="0.7"/><text x="88.20" y="165.00" font-family="sans-serif" font-size="6" fill="#dc2626" opacity="0.85">RF_INPUT-&gt;IC1</text><polyline points="129.60,158.40 129.60,247.20 120.00,256.80 120.00,300.00" fill="none" stroke="#dc2626" stroke-width="21.60" stroke-linecap="butt" stroke-linejoin="miter" opacity="0.78"/><circle cx="129.60" cy="158.40" r="3" fill="none" stroke="#dc2626" stroke-width="1.0" opacity="0.7"/><circle cx="120.00" cy="300.00" r="3" fill="none" stroke="#dc2626" stroke-width="1.0" opacity="0.7"/><text x="123.00" y="253.80" font-family="sans-serif" font-size="6" fill="#dc2626" opacity="0.85">PWR_VDD_bus</text><polyline points="153.60,451.20 229.20,526.80 234.60,526.80 240.00,532.20 240.00,540.00" fill="none" stroke="#dc2626" stroke-width="6.60" stroke-linecap="butt" stroke-linejoin="miter" opacity="0.78"/><circle cx="153.60" cy="451.20" r="3" fill="none" stroke="#dc2626" stroke-width="1.0" opacity="0.7"/><circle cx="240.00" cy="540.00" r="3" fill="none" stroke="#dc2626" stroke-width="1.0" opacity="0.7"/><text x="237.60" y="523.80" font-family="sans-serif" font-size="6" fill="#dc2626" opacity="0.85">p1s6</text><polyline points="112.80,451.20 188.40,526.80 193.20,526.80 198.00,531.60 198.00,540.00" fill="none" stroke="#dc2626" stroke-width="6.60" stroke-linecap="butt" stroke-linejoin="miter" opacity="0.78"/><circle cx="112.80" cy="451.20" r="3" fill="none" stroke="#dc2626" stroke-width="1.0" opacity="0.7"/><circle cx="198.00" cy="540.00" r="3" fill="none" stroke="#dc2626" stroke-width="1.0" opacity="0.7"/><text x="196.20" y="523.80" font-family="sans-serif" font-size="6" fill="#dc2626" opacity="0.85">p2s6</text><circle cx="130.80" cy="385.20" r="1.5" fill="#111827"/><circle cx="150.00" cy="285.00" r="1.5" fill="#111827"/><circle cx="126.00" cy="422.40" r="1.5" fill="#111827"/><circle cx="134.40" cy="422.40" r="1.5" fill="#111827"/><circle cx="73.20" cy="385.20" r="1.5" fill="#111827"/><circle cx="150.00" cy="285.00" r="1.5" fill="#111827"/><circle cx="150.00" cy="285.00" r="1.5" fill="#111827"/><circle cx="93.60" cy="422.40" r="1.5" fill="#111827"/><text x="6" y="14" font-family="sans-serif" font-size="11" fill="#0f172a">PA_Module_Simplified | status=OPTIMAL | wall=0.288s</text><text x="6" y="28" font-family="sans-serif" font-size="10" fill="#111827">pads=22 | bboxes=10</text><text x="119.88" y="358.00" font-family="sans-serif" font-size="6" text-anchor="middle" font-weight="bold" fill="#111827" stroke="#ffffff" stroke-width="0.8" paint-order="stroke">PIN_1</text><text x="85.32" y="358.00" font-family="sans-serif" font-size="6" text-anchor="middle" font-weight="bold" fill="#111827" stroke="#ffffff" stroke-width="0.8" paint-order="stroke">PIN_2</text><text x="85.32" y="298.00" font-family="sans-serif" font-size="6" text-anchor="middle" font-weight="bold" fill="#111827" stroke="#ffffff" stroke-width="0.8" paint-order="stroke">PIN_3</text><text x="119.88" y="298.00" font-family="sans-serif" font-size="6" text-anchor="middle" font-weight="bold" fill="#111827" stroke="#ffffff" stroke-width="0.8" paint-order="stroke">PIN_4</text><text x="120.00" y="148.00" font-family="sans-serif" font-size="6" text-anchor="middle" font-weight="bold" fill="#111827" stroke="#ffffff" stroke-width="0.8" paint-order="stroke">PIN_1</text><text x="180.00" y="28.00" font-family="sans-serif" font-size="6" text-anchor="middle" font-weight="bold" fill="#111827" stroke="#ffffff" stroke-width="0.8" paint-order="stroke">PIN_1</text><text x="240.00" y="538.00" font-family="sans-serif" font-size="6" text-anchor="middle" font-weight="bold" fill="#111827" stroke="#ffffff" stroke-width="0.8" paint-order="stroke">PIN_1</text><text x="198.00" y="538.00" font-family="sans-serif" font-size="6" text-anchor="middle" font-weight="bold" fill="#111827" stroke="#ffffff" stroke-width="0.8" paint-order="stroke">PIN_1</text><text x="85.32" y="356.00" font-family="sans-serif" font-size="4.5" fill="#7c3aed" text-anchor="middle" stroke="#ffffff" stroke-width="0.5" paint-order="stroke">IC1.2</text><text x="85.32" y="390.50" font-family="sans-serif" font-size="4.5" fill="#7c3aed" text-anchor="middle" stroke="#ffffff" stroke-width="0.5" paint-order="stroke">p2s1_u</text><text x="119.88" y="356.00" font-family="sans-serif" font-size="4.5" fill="#7c3aed" text-anchor="middle" stroke="#ffffff" stroke-width="0.5" paint-order="stroke">IC1.1</text><text x="119.88" y="390.50" font-family="sans-serif" font-size="4.5" fill="#7c3aed" text-anchor="middle" stroke="#ffffff" stroke-width="0.5" paint-order="stroke">p1s1_u</text><text x="125.88" y="418.52" font-family="sans-serif" font-size="4.5" fill="#7c3aed" text-anchor="middle" stroke="#ffffff" stroke-width="0.5" paint-order="stroke">p1s4_sp</text><text x="134.37" y="418.52" font-family="sans-serif" font-size="4.5" fill="#7c3aed" text-anchor="middle" stroke="#ffffff" stroke-width="0.5" paint-order="stroke">p1s5_sc</text><text x="94.08" y="418.52" font-family="sans-serif" font-size="4.5" fill="#7c3aed" text-anchor="middle" stroke="#ffffff" stroke-width="0.5" paint-order="stroke">p2s5_sc</text><text x="180.00" y="26.00" font-family="sans-serif" font-size="4.5" fill="#7c3aed" text-anchor="middle" stroke="#ffffff" stroke-width="0.5" paint-order="stroke">TP3.1</text><text x="85.32" y="296.00" font-family="sans-serif" font-size="4.5" fill="#7c3aed" text-anchor="middle" stroke="#ffffff" stroke-width="0.5" paint-order="stroke">IC1.3</text><text x="120.00" y="146.00" font-family="sans-serif" font-size="4.5" fill="#7c3aed" text-anchor="middle" stroke="#ffffff" stroke-width="0.5" paint-order="stroke">TP2.1</text><text x="119.88" y="296.00" font-family="sans-serif" font-size="4.5" fill="#7c3aed" text-anchor="middle" stroke="#ffffff" stroke-width="0.5" paint-order="stroke">IC1.4</text><text x="240.00" y="536.00" font-family="sans-serif" font-size="4.5" fill="#7c3aed" text-anchor="middle" stroke="#ffffff" stroke-width="0.5" paint-order="stroke">TP4.1</text><text x="198.00" y="536.00" font-family="sans-serif" font-size="4.5" fill="#7c3aed" text-anchor="middle" stroke="#ffffff" stroke-width="0.5" paint-order="stroke">TP5.1</text><circle cx="85.20" cy="394.80" r="3" fill="rgba(0,0,0,0)"><title>IC1_pin2_seg1 | w=3.90mm | L=5.80/5.75mm (+0.9%)</title></circle><text x="85.20" y="401.80" font-family="sans-serif" font-size="5.5" fill="#1f2937" text-anchor="middle" stroke="#ffffff" stroke-width="0.6" paint-order="stroke">p2s1</text><circle cx="120.00" cy="394.80" r="3" fill="rgba(0,0,0,0)"><title>IC1_pin1_seg1 | w=3.60mm | L=5.80/5.75mm (+0.9%)</title></circle><text x="120.00" y="401.80" font-family="sans-serif" font-size="5.5" fill="#1f2937" text-anchor="middle" stroke="#ffffff" stroke-width="0.6" paint-order="stroke">p1s1</text><circle cx="126.00" cy="422.40" r="3" fill="rgba(0,0,0,0)"><title>IC1_pin1_seg4 | w=1.60mm | L=4.60/4.67mm (-1.5%)</title></circle><text x="126.00" y="429.40" font-family="sans-serif" font-size="5.5" fill="#1f2937" text-anchor="middle" stroke="#ffffff" stroke-width="0.6" paint-order="stroke">p1s4</text><circle cx="85.20" cy="422.40" r="3" fill="rgba(0,0,0,0)"><title>IC1_pin2_seg4 | w=1.60mm | L=4.60/4.67mm (-1.5%)</title></circle><text x="85.20" y="429.40" font-family="sans-serif" font-size="5.5" fill="#1f2937" text-anchor="middle" stroke="#ffffff" stroke-width="0.6" paint-order="stroke">p2s4</text><circle cx="138.00" cy="373.20" r="3" fill="rgba(0,0,0,0)"><title>IC1_pin1_seg2 | w=1.88mm | L=1.20/1.29mm (-7.0%)</title></circle><text x="138.00" y="380.20" font-family="sans-serif" font-size="5.5" fill="#1f2937" text-anchor="middle" stroke="#ffffff" stroke-width="0.6" paint-order="stroke">p1s2</text><circle cx="66.00" cy="373.20" r="3" fill="rgba(0,0,0,0)"><title>IC1_pin2_seg2 | w=1.88mm | L=1.20/1.29mm (-7.0%)</title></circle><text x="66.00" y="380.20" font-family="sans-serif" font-size="5.5" fill="#1f2937" text-anchor="middle" stroke="#ffffff" stroke-width="0.6" paint-order="stroke">p2s2</text><circle cx="153.60" cy="441.60" r="3" fill="rgba(0,0,0,0)"><title>IC1_pin1_seg5 | w=1.10mm | L=4.93/4.72mm (+4.4%)</title></circle><text x="153.60" y="448.60" font-family="sans-serif" font-size="5.5" fill="#1f2937" text-anchor="middle" stroke="#ffffff" stroke-width="0.6" paint-order="stroke">p1s5</text><circle cx="112.80" cy="441.60" r="3" fill="rgba(0,0,0,0)"><title>IC1_pin2_seg5 | w=1.10mm | L=4.73/4.63mm (+2.1%)</title></circle><text x="112.80" y="448.60" font-family="sans-serif" font-size="5.5" fill="#1f2937" text-anchor="middle" stroke="#ffffff" stroke-width="0.6" paint-order="stroke">p2s5</text><circle cx="139.20" cy="385.20" r="3" fill="rgba(0,0,0,0)"><title>IC1_pin1_seg3 | w=1.27mm | L=1.40/1.47mm (-4.8%)</title></circle><text x="139.20" y="392.20" font-family="sans-serif" font-size="5.5" fill="#1f2937" text-anchor="middle" stroke="#ffffff" stroke-width="0.6" paint-order="stroke">p1s3</text><circle cx="64.80" cy="385.20" r="3" fill="rgba(0,0,0,0)"><title>IC1_pin2_seg3 | w=1.27mm | L=1.40/1.47mm (-4.8%)</title></circle><text x="64.80" y="392.20" font-family="sans-serif" font-size="5.5" fill="#1f2937" text-anchor="middle" stroke="#ffffff" stroke-width="0.6" paint-order="stroke">p2s3</text><circle cx="85.20" cy="168.00" r="3" fill="rgba(0,0,0,0)"><title>RF_INPUT_to_IC1 | w=3.60mm | L=51.54/80.00mm (-35.6%)</title></circle><text x="85.20" y="175.00" font-family="sans-serif" font-size="5.5" fill="#1f2937" text-anchor="middle" stroke="#ffffff" stroke-width="0.6" paint-order="stroke">RF_INPUT-&gt;IC1</text><circle cx="120.00" cy="256.80" r="3" fill="rgba(0,0,0,0)"><title>PWR_VDD_bus | w=3.60mm | L=24.26/25.50mm (-4.9%)</title></circle><text x="120.00" y="263.80" font-family="sans-serif" font-size="5.5" fill="#1f2937" text-anchor="middle" stroke="#ffffff" stroke-width="0.6" paint-order="stroke">PWR_VDD_bus</text><circle cx="234.60" cy="526.80" r="3" fill="rgba(0,0,0,0)"><title>IC1_pin1_seg6 | w=1.10mm | L=21.29/20.00mm (+6.5%)</title></circle><text x="234.60" y="533.80" font-family="sans-serif" font-size="5.5" fill="#1f2937" text-anchor="middle" stroke="#ffffff" stroke-width="0.6" paint-order="stroke">p1s6</text><circle cx="193.20" cy="526.80" r="3" fill="rgba(0,0,0,0)"><title>IC1_pin2_seg6 | w=1.10mm | L=21.15/20.00mm (+5.8%)</title></circle><text x="193.20" y="533.80" font-family="sans-serif" font-size="5.5" fill="#1f2937" text-anchor="middle" stroke="#ffffff" stroke-width="0.6" paint-order="stroke">p2s6</text><circle cx="126.00" cy="422.40" r="3" fill="rgba(0,0,0,0)"><title>IC1_pin1_seg4_to_C1R1 | w=0.00mm | L=0.00mm</title></circle><text x="126.00" y="429.40" font-family="sans-serif" font-size="5.5" fill="#1f2937" text-anchor="middle" stroke="#ffffff" stroke-width="0.6" paint-order="stroke">p1s4-&gt;C1R1</text><circle cx="134.40" cy="422.40" r="3" fill="rgba(0,0,0,0)"><title>C1R1_to_combiner | w=0.00mm | L=0.00mm</title></circle><text x="134.40" y="429.40" font-family="sans-serif" font-size="5.5" fill="#1f2937" text-anchor="middle" stroke="#ffffff" stroke-width="0.6" paint-order="stroke">C1R1-&gt;combiner</text><circle cx="93.60" cy="422.40" r="3" fill="rgba(0,0,0,0)"><title>R3_to_combiner | w=0.00mm | L=0.00mm</title></circle><text x="93.60" y="429.40" font-family="sans-serif" font-size="5.5" fill="#1f2937" text-anchor="middle" stroke="#ffffff" stroke-width="0.6" paint-order="stroke">R3-&gt;combiner</text><style>.prea-rlc-bbox{fill:#ecfdf5;stroke:#0f766e;stroke-width:0.8;stroke-dasharray:2 2;opacity:0.85;}.prea-rlc-pad{fill:#cbd5e1;stroke:#475569;stroke-width:0.7;opacity:0.95;}.prea-gnd-pin{fill:#f59e0b;stroke:#92400e;stroke-width:0.7;}.phb-name-label{fill:#0f172a;font-family:Arial,sans-serif;font-size:7px;font-weight:bold;}.phb-net-label{fill:#7c2d12;font-family:Arial,sans-serif;font-size:6px;font-weight:bold;}.phb-pin-label{fill:#111827;font-family:Arial,sans-serif;font-size:5px;font-weight:bold;stroke:#ffffff;stroke-width:0.6;paint-order:stroke;}</style><g class="phaseB-rlc"><polygon class="prea-rlc-pad" points="122.43,425.13 129.57,425.13 129.57,419.67 122.43,419.67"><title>C1.PIN_1</title></polygon><polygon class="prea-rlc-pad" points="130.83,425.13 137.97,425.13 137.97,419.67 130.83,419.67"><title>C1.PIN_2</title></polygon><polygon class="prea-rlc-pad" points="150.87,440.43 150.87,447.57 156.33,447.57 156.33,440.43"><title>C2.PIN_1</title></polygon><polygon class="prea-rlc-pad" points="150.87,447.63 150.87,454.77 156.33,454.77 156.33,447.63"><title>C2.PIN_2</title></polygon><polygon class="prea-rlc-pad" points="84.36,403.05 91.50,403.05 91.50,397.59 84.36,397.59"><title>C3.PIN_1</title></polygon><polygon class="prea-gnd-pin" points="92.58,403.05 99.72,403.05 99.72,397.59 92.58,397.59"><title>C3.PIN_2</title></polygon><text class="phb-net-label" x="99.15" y="408.32">GND</text><polygon class="prea-rlc-pad" points="115.53,445.71 115.53,439.89 110.07,439.89 110.07,445.71"><title>C4.PIN_1</title></polygon><polygon class="prea-rlc-pad" points="110.07,448.29 110.07,454.11 115.53,454.11 115.53,448.29"><title>C4.PIN_2</title></polygon><polygon class="prea-rlc-pad" points="135.63,387.93 142.77,387.93 142.77,382.47 135.63,382.47"><title>C5.PIN_1</title></polygon><polygon class="prea-gnd-pin" points="143.85,387.93 150.99,387.93 150.99,382.47 143.85,382.47"><title>C5.PIN_2</title></polygon><text class="phb-net-label" x="150.42" y="393.20">GND</text><polygon class="prea-gnd-pin" points="66.27,393.42 66.27,399.24 71.73,399.24 71.73,393.42"><title>C6.PIN_1</title></polygon><text class="phb-net-label" x="72.00" y="404.33">GND</text><polygon class="prea-rlc-pad" points="71.73,390.84 71.73,385.02 66.27,385.02 66.27,390.84"><title>C6.PIN_2</title></polygon><polygon class="prea-rlc-pad" points="134.43,375.93 141.57,375.93 141.57,370.47 134.43,370.47"><title>C7.PIN_1</title></polygon><polygon class="prea-gnd-pin" points="142.65,375.93 149.79,375.93 149.79,370.47 142.65,370.47"><title>C7.PIN_2</title></polygon><text class="phb-net-label" x="149.22" y="381.20">GND</text><polygon class="prea-rlc-pad" points="125.31,402.90 131.85,402.90 131.85,397.74 125.31,397.74"><title>R1.PIN_1</title></polygon><polygon class="prea-rlc-pad" points="134.07,402.90 140.61,402.90 140.61,397.74 134.07,397.74"><title>R1.PIN_2</title></polygon><polygon class="prea-rlc-pad" points="81.93,424.98 88.47,424.98 88.47,419.82 81.93,419.82"><title>R3.PIN_1</title></polygon><polygon class="prea-rlc-pad" points="90.33,424.98 96.87,424.98 96.87,419.82 90.33,419.82"><title>R3.PIN_2</title></polygon></g><text x="6" y="26" font-family="sans-serif" font-size="9" font-weight="bold" fill="#15803d">[Phase B] UV adhesion — 9/9 components placed (highlighted green)</text></svg>