<svg xmlns="http://www.w3.org/2000/svg" width="300.0" height="660.0" viewBox="0 0 300.0 660.0" role="img" aria-label="Pre-A connectivity"><style>.prea-board{fill:none;stroke:#111827;stroke-width:1.8;}.prea-fixed-point{fill:#1d4ed8;stroke:#1e3a8a;stroke-width:1;}.prea-node{fill:#22c55e;stroke:#166534;stroke-width:1;}.prea-virtual-endpoint{fill:#f59e0b;stroke:#92400e;stroke-width:1;}.prea-rlc-pad{fill:#cbd5e1;stroke:#475569;stroke-width:0.7;opacity:0.9;}.prea-rlc-bbox{fill:none;stroke:#0f766e;stroke-width:0.8;stroke-dasharray:2 2;opacity:0.9;}.prea-assist-link{stroke:#475569;stroke-width:0.7;stroke-dasharray:2 2;opacity:0.95;}.prea-edge-bridge{stroke:#64748b;stroke-width:0.9;stroke-dasharray:2 2;opacity:0.9;}.prea-edge{fill:none;stroke-linecap:butt;stroke-linejoin:miter;opacity:0.95;}.prea-label{fill:#0f172a;font-family:Arial,sans-serif;font-size:8px;}.prea-net-label{fill:#7c2d12;font-family:Arial,sans-serif;font-size:7px;font-weight:bold;}.prea-gnd-pin{fill:#f59e0b;stroke:#92400e;stroke-width:0.8;}.prea-fixed-bbox{fill:none;stroke:#1f2937;stroke-width:0.9;stroke-dasharray:2 1;opacity:0.9;}.prea-fixed-pad{fill:#dbeafe;stroke:#1e40af;stroke-width:0.8;opacity:0.95;}</style><rect class="prea-board" x="30.00" y="30.00" width="240.00" height="600.00"/><line class="prea-edge" data-edge-id="C1R1_to_combiner" x1="134.18" y1="420.74" x2="134.18" y2="420.74" stroke="#334155" stroke-width="1.20"><title>C1R1_to_combiner | w=0.0mm | L=n/a</title></line><line class="prea-edge" data-edge-id="IC1_pin1_seg1" x1="119.88" y1="360.00" x2="119.88" y2="394.50" stroke="#334155" stroke-width="21.60"><title>IC1_pin1_seg1 | w=3.6mm | L=5.8mm</title></line><text class="prea-label" x="123.88" y="373.25">p1_seg1</text><line class="prea-edge" data-edge-id="IC1_pin1_seg2" x1="130.68" y1="370.86" x2="138.42" y2="370.86" stroke="#334155" stroke-width="11.28"><title>IC1_pin1_seg2 | w=1.9mm | L=1.3mm</title></line><text class="prea-label" x="138.55" y="366.86">p1_seg2</text><line class="prea-edge" data-edge-id="IC1_pin1_seg2_to_R2" x1="120.00" y1="621.60" x2="120.00" y2="621.60" stroke="#334155" stroke-width="1.20"><title>IC1_pin1_seg2_to_R2 | w=0.0mm | L=n/a</title></line><line class="prea-edge" data-edge-id="IC1_pin1_seg3" x1="130.68" y1="384.90" x2="139.50" y2="384.90" stroke="#334155" stroke-width="7.62"><title>IC1_pin1_seg3 | w=1.3mm | L=1.5mm</title></line><text class="prea-label" x="139.09" y="380.90">p1_seg3</text><line class="prea-edge" data-edge-id="IC1_pin1_seg3_to_C5" x1="139.50" y1="384.90" x2="139.50" y2="384.90" stroke="#334155" stroke-width="1.20"><title>IC1_pin1_seg3_to_C5 | w=0.0mm | L=n/a</title></line><line class="prea-edge" data-edge-id="IC1_pin1_seg4" x1="125.88" y1="394.50" x2="125.88" y2="422.52" stroke="#334155" stroke-width="9.60"><title>IC1_pin1_seg4 | w=1.6mm | L=4.7mm</title></line><text class="prea-label" x="129.88" y="404.51">p1_seg4</text><line class="prea-edge" data-edge-id="IC1_pin1_seg4_to_C1R1" x1="125.88" y1="422.52" x2="125.88" y2="422.52" stroke="#334155" stroke-width="1.20"><title>IC1_pin1_seg4_to_C1R1 | w=0.0mm | L=n/a</title></line><line class="prea-edge" data-edge-id="IC1_pin1_seg5" x1="134.18" y1="420.74" x2="146.96" y2="446.01" stroke="#334155" stroke-width="6.60"><title>IC1_pin1_seg5 | w=1.1mm | L=4.7mm</title></line><text class="prea-label" x="144.57" y="429.38">p1_seg5</text><line class="prea-edge" data-edge-id="IC1_pin1_seg6" x1="150.67" y1="453.35" x2="204.82" y2="560.44" stroke="#334155" stroke-width="6.60"><title>IC1_pin1_seg6 | w=1.1mm | L=20.0mm</title></line><line class="prea-edge-bridge" data-edge-id="IC1_pin1_seg6" x1="204.82" y1="560.44" x2="240.00" y2="630.00"/><text class="prea-label" x="181.75" y="502.89">p1_seg6</text><line class="prea-edge" data-edge-id="IC1_pin2_seg1" x1="85.32" y1="360.00" x2="85.32" y2="394.50" stroke="#334155" stroke-width="23.40"><title>IC1_pin2_seg1 | w=3.9mm | L=5.8mm</title></line><text class="prea-label" x="89.32" y="373.25">p2_seg1</text><line class="prea-edge" data-edge-id="IC1_pin2_seg2" x1="73.62" y1="372.84" x2="65.88" y2="372.84" stroke="#334155" stroke-width="11.28"><title>IC1_pin2_seg2 | w=1.9mm | L=1.3mm</title></line><text class="prea-label" x="73.75" y="368.84">p2_seg2</text><line class="prea-edge" data-edge-id="IC1_pin2_seg2_to_C3" x1="65.88" y1="372.84" x2="65.88" y2="372.84" stroke="#334155" stroke-width="1.20"><title>IC1_pin2_seg2_to_C3 | w=0.0mm | L=n/a</title></line><line class="prea-edge" data-edge-id="IC1_pin2_seg3" x1="73.62" y1="385.56" x2="64.80" y2="385.56" stroke="#334155" stroke-width="7.62"><title>IC1_pin2_seg3 | w=1.3mm | L=1.5mm</title></line><text class="prea-label" x="73.21" y="381.56">p2_seg3</text><line class="prea-edge" data-edge-id="IC1_pin2_seg3_to_C6" x1="64.80" y1="385.56" x2="64.80" y2="385.56" stroke="#334155" stroke-width="1.20"><title>IC1_pin2_seg3_to_C6 | w=0.0mm | L=n/a</title></line><line class="prea-edge" data-edge-id="IC1_pin2_seg4" x1="85.32" y1="394.50" x2="85.32" y2="422.52" stroke="#334155" stroke-width="9.60"><title>IC1_pin2_seg4 | w=1.6mm | L=4.7mm</title></line><text class="prea-label" x="89.32" y="404.51">p2_seg4</text><line class="prea-edge" data-edge-id="IC1_pin2_seg5" x1="94.08" y1="422.52" x2="106.52" y2="447.36" stroke="#334155" stroke-width="6.60"><title>IC1_pin2_seg5 | w=1.1mm | L=4.6mm</title></line><text class="prea-label" x="104.30" y="430.94">p2_seg5</text><line class="prea-edge" data-edge-id="IC1_pin2_seg6" x1="110.28" y1="454.87" x2="164.02" y2="562.16" stroke="#334155" stroke-width="6.60"><title>IC1_pin2_seg6 | w=1.1mm | L=20.0mm</title></line><line class="prea-edge-bridge" data-edge-id="IC1_pin2_seg6" x1="164.02" y1="562.16" x2="198.00" y2="630.00"/><text class="prea-label" x="141.15" y="504.52">p2_seg6</text><line class="prea-edge" data-edge-id="PWR_VDD_bus" x1="119.88" y1="147.00" x2="119.88" y2="300.00" stroke="#334155" stroke-width="21.60"><title>PWR_VDD_bus | w=3.6mm | L=25.5mm</title></line><line class="prea-edge-bridge" data-edge-id="PWR_VDD_bus" x1="119.88" y1="147.00" x2="120.00" y2="150.00"/><text class="prea-label" x="123.88" y="219.50">PWR_VDD_bus</text><line class="prea-edge" data-edge-id="R2_to_TP1" x1="120.00" y1="630.00" x2="60.00" y2="630.00" stroke="#334155" stroke-width="3.48"><title>R2_to_TP1 | w=0.6mm | L=10.0mm</title></line><text class="prea-label" x="94.00" y="626.00">R2-&gt;TP1</text><line class="prea-edge" data-edge-id="R3_to_combiner" x1="94.08" y1="422.52" x2="94.08" y2="422.52" stroke="#334155" stroke-width="1.20"><title>R3_to_combiner | w=0.0mm | L=n/a</title></line><line class="prea-edge" data-edge-id="RF_INPUT_to_IC1" x1="85.32" y1="-180.00" x2="85.32" y2="300.00" stroke="#334155" stroke-width="21.60"><title>RF_INPUT_to_IC1 | w=3.6mm | L=80.0mm</title></line><line class="prea-edge-bridge" data-edge-id="RF_INPUT_to_IC1" x1="85.32" y1="-180.00" x2="180.00" y2="30.00"/><text class="prea-label" x="89.32" y="56.00">RF_INPUT-&gt;IC1</text><path class="prea-rlc-bbox" d="M 122.99,426.05 L 138.01,422.84 L 136.81,417.26 L 121.79,420.48 Z"><title>C1</title></path><polygon class="prea-rlc-pad" points="122.96,425.94 129.94,424.44 128.80,419.10 121.82,420.60"><title>C1.PIN_1</title></polygon><polygon class="prea-rlc-pad" points="131.00,424.22 137.98,422.72 136.84,417.38 129.86,418.88"><title>C1.PIN_2</title></polygon><path class="prea-rlc-bbox" d="M 123.25,425.84 L 138.21,422.64 L 137.08,417.36 L 122.12,420.56 Z"><title>R1</title></path><polygon class="prea-rlc-pad" points="123.22,425.73 129.62,424.36 128.54,419.31 122.14,420.68"><title>R1.PIN_1</title></polygon><polygon class="prea-rlc-pad" points="131.79,423.89 138.18,422.52 137.10,417.48 130.71,418.85"><title>R1.PIN_2</title></polygon><path class="prea-rlc-bbox" d="M 142.81,444.12 L 149.74,457.82 L 154.83,455.25 L 147.89,441.54 Z"><title>C2</title></path><polygon class="prea-rlc-pad" points="142.91,444.06 146.14,450.43 151.01,447.97 147.79,441.60"><title>C2.PIN_1</title></polygon><polygon class="prea-rlc-pad" points="146.62,451.40 149.85,457.77 154.72,455.30 151.50,448.93"><title>C2.PIN_2</title></polygon><path class="prea-rlc-bbox" d="M 123.00,632.91 L 123.00,618.69 L 117.00,618.69 L 117.00,632.91 Z"><title>R2</title></path><polygon class="prea-rlc-pad" points="117.27,627.09 117.27,632.91 122.73,632.91 122.73,627.09"><title>R2.PIN_1</title></polygon><polygon class="prea-rlc-pad" points="122.73,624.51 122.73,618.69 117.27,618.69 117.27,624.51"><title>R2.PIN_2</title></polygon><path class="prea-rlc-bbox" d="M 65.13,377.35 L 76.56,367.09 L 72.75,362.84 L 61.32,373.10 Z"><title>C3</title></path><text class="prea-net-label" x="76.00" y="375.35">GND</text><rect class="prea-gnd-pin" x="69.80" y="365.15" width="4.4" height="4.4"/><polygon class="prea-rlc-pad" points="65.05,377.26 70.36,372.49 66.71,368.42 61.40,373.19"><title>C3.PIN_1</title></polygon><polygon class="prea-rlc-pad" points="71.16,371.77 76.48,367.00 72.83,362.93 67.52,367.70"><title>C3.PIN_2</title></polygon><path class="prea-rlc-bbox" d="M 82.05,425.22 L 97.35,425.22 L 97.35,419.82 L 82.05,419.82 Z"><title>R3</title></path><polygon class="prea-rlc-pad" points="82.05,425.10 88.59,425.10 88.59,419.94 82.05,419.94"><title>R3.PIN_1</title></polygon><polygon class="prea-rlc-pad" points="90.81,425.10 97.35,425.10 97.35,419.94 90.81,419.94"><title>R3.PIN_2</title></polygon><path class="prea-rlc-bbox" d="M 102.54,446.10 L 108.90,458.81 L 114.27,456.13 L 107.90,443.41 Z"><title>C4</title></path><polygon class="prea-rlc-pad" points="110.26,448.74 107.66,443.53 102.78,445.98 105.38,451.18"><title>C4.PIN_1</title></polygon><polygon class="prea-rlc-pad" points="106.54,453.49 109.14,458.69 114.03,456.25 111.42,451.04"><title>C4.PIN_2</title></polygon><path class="prea-rlc-bbox" d="M 137.55,389.03 L 151.34,382.28 L 148.84,377.16 L 135.04,383.91 Z"><title>C5</title></path><text class="prea-net-label" x="150.88" y="389.29">GND</text><rect class="prea-gnd-pin" x="144.68" y="379.09" width="4.4" height="4.4"/><polygon class="prea-rlc-pad" points="137.49,388.92 143.91,385.78 141.51,380.88 135.09,384.02"><title>C5.PIN_1</title></polygon><polygon class="prea-rlc-pad" points="144.88,385.31 151.29,382.17 148.89,377.27 142.48,380.40"><title>C5.PIN_2</title></polygon><path class="prea-rlc-bbox" d="M 66.57,373.99 L 60.89,387.03 L 66.39,389.43 L 72.07,376.39 Z"><title>C6</title></path><text class="prea-net-label" x="72.16" y="385.86">GND</text><rect class="prea-gnd-pin" x="65.96" y="375.66" width="4.4" height="4.4"/><polygon class="prea-rlc-pad" points="69.50,381.62 71.82,376.28 66.81,374.10 64.49,379.44"><title>C6.PIN_1</title></polygon><polygon class="prea-rlc-pad" points="63.46,381.80 61.13,387.14 66.14,389.32 68.47,383.98"><title>C6.PIN_2</title></polygon><path class="prea-fixed-bbox" d="M 56.31,366.09 L 148.89,366.09 L 148.89,293.91 L 56.31,293.91 Z"><title>IC1</title></path><polygon class="prea-fixed-pad" points="108.75,348.48 108.75,371.52 131.01,371.52 131.01,348.48"><title>IC1.PIN_1</title></polygon><polygon class="prea-fixed-pad" points="74.19,348.48 74.19,371.52 96.45,371.52 96.45,348.48"><title>IC1.PIN_2</title></polygon><polygon class="prea-fixed-pad" points="96.45,311.52 96.45,288.48 74.19,288.48 74.19,311.52"><title>IC1.PIN_3</title></polygon><polygon class="prea-fixed-pad" points="131.01,311.52 131.01,288.48 108.75,288.48 108.75,311.52"><title>IC1.PIN_4</title></polygon><rect class="prea-fixed-pad" x="58.00" y="628.00" width="4.0" height="4.0"><title>TP1.PIN_1</title></rect><rect class="prea-fixed-pad" x="118.00" y="148.00" width="4.0" height="4.0"><title>TP2.PIN_1</title></rect><rect class="prea-fixed-pad" x="178.00" y="28.00" width="4.0" height="4.0"><title>TP3.PIN_1</title></rect><rect class="prea-fixed-pad" x="238.00" y="628.00" width="4.0" height="4.0"><title>TP4.PIN_1</title></rect><rect class="prea-fixed-pad" x="196.00" y="628.00" width="4.0" height="4.0"><title>TP5.PIN_1</title></rect><polygon class="prea-virtual-endpoint" points="125.88,418.72 129.68,422.52 125.88,426.32 122.08,422.52"/><text class="prea-label" x="129.88" y="418.52">C1.1</text><polygon class="prea-virtual-endpoint" points="125.88,418.72 129.68,422.52 125.88,426.32 122.08,422.52"/><text class="prea-label" x="129.88" y="418.52">C1.1,R1.1</text><polygon class="prea-virtual-endpoint" points="133.92,417.00 137.72,420.80 133.92,424.60 130.12,420.80"/><text class="prea-label" x="137.92" y="416.80">C1.2</text><polygon class="prea-virtual-endpoint" points="134.18,416.94 137.98,420.74 134.18,424.54 130.38,420.74"/><text class="prea-label" x="138.18" y="416.74">C1.2,R1.2</text><polygon class="prea-virtual-endpoint" points="146.96,442.21 150.76,446.01 146.96,449.81 143.16,446.01"/><text class="prea-label" x="150.96" y="442.01">C2.1</text><polygon class="prea-virtual-endpoint" points="150.67,449.55 154.47,453.35 150.67,457.15 146.87,453.35"/><text class="prea-label" x="154.67" y="449.35">C2.2</text><polygon class="prea-virtual-endpoint" points="65.88,369.04 69.68,372.84 65.88,376.64 62.08,372.84"/><text class="prea-label" x="69.88" y="368.84">C3.1</text><polygon class="prea-virtual-endpoint" points="72.00,363.55 75.80,367.35 72.00,371.15 68.20,367.35"/><text class="prea-label" x="76.00" y="363.35">C3.2</text><polygon class="prea-virtual-endpoint" points="106.52,443.56 110.32,447.36 106.52,451.16 102.72,447.36"/><text class="prea-label" x="110.52" y="443.36">C4.1</text><polygon class="prea-virtual-endpoint" points="110.28,451.07 114.08,454.87 110.28,458.67 106.48,454.87"/><text class="prea-label" x="114.28" y="450.87">C4.2</text><polygon class="prea-virtual-endpoint" points="139.50,381.10 143.30,384.90 139.50,388.70 135.70,384.90"/><text class="prea-label" x="143.50" y="380.90">C5.1</text><polygon class="prea-virtual-endpoint" points="146.88,377.49 150.68,381.29 146.88,385.09 143.08,381.29"/><text class="prea-label" x="150.88" y="377.29">C5.2</text><polygon class="prea-virtual-endpoint" points="68.16,374.06 71.96,377.86 68.16,381.66 64.36,377.86"/><text class="prea-label" x="72.16" y="373.86">C6.1</text><polygon class="prea-virtual-endpoint" points="64.80,381.76 68.60,385.56 64.80,389.36 61.00,385.56"/><text class="prea-label" x="68.80" y="381.56">C6.2</text><circle class="prea-fixed-point" cx="119.88" cy="360.00" r="3.2"/><text class="prea-label" x="123.88" y="356.00">IC1.1</text><circle class="prea-fixed-point" cx="85.32" cy="360.00" r="3.2"/><text class="prea-label" x="89.32" y="356.00">IC1.2</text><circle class="prea-fixed-point" cx="85.32" cy="300.00" r="3.2"/><text class="prea-label" x="89.32" y="296.00">IC1.3</text><circle class="prea-fixed-point" cx="119.88" cy="300.00" r="3.2"/><text class="prea-label" x="123.88" y="296.00">IC1.4</text><circle class="prea-node" cx="119.88" cy="394.50" r="2.8"/><circle class="prea-node" cx="120.00" cy="621.60" r="2.8"/><circle class="prea-node" cx="125.88" cy="422.52" r="2.8"/><circle class="prea-node" cx="134.18" cy="420.74" r="2.8"/><circle class="prea-node" cx="85.32" cy="394.50" r="2.8"/><circle class="prea-node" cx="65.88" cy="372.84" r="2.8"/><circle class="prea-node" cx="64.80" cy="385.56" r="2.8"/><circle class="prea-node" cx="94.08" cy="422.52" r="2.8"/><polygon class="prea-virtual-endpoint" points="125.88,418.72 129.68,422.52 125.88,426.32 122.08,422.52"/><text class="prea-label" x="129.88" y="418.52">R1.1</text><polygon class="prea-virtual-endpoint" points="134.45,416.89 138.25,420.69 134.45,424.49 130.65,420.69"/><text class="prea-label" x="138.45" y="416.69">R1.2</text><polygon class="prea-virtual-endpoint" points="120.00,626.20 123.80,630.00 120.00,633.80 116.20,630.00"/><text class="prea-label" x="124.00" y="626.00">R2.1</text><polygon class="prea-virtual-endpoint" points="120.00,617.80 123.80,621.60 120.00,625.40 116.20,621.60"/><text class="prea-label" x="124.00" y="617.60">R2.2</text><polygon class="prea-virtual-endpoint" points="85.32,418.72 89.12,422.52 85.32,426.32 81.52,422.52"/><text class="prea-label" x="89.32" y="418.52">R3.1</text><polygon class="prea-virtual-endpoint" points="94.08,418.72 97.88,422.52 94.08,426.32 90.28,422.52"/><text class="prea-label" x="98.08" y="418.52">R3.2</text><circle class="prea-fixed-point" cx="60.00" cy="630.00" r="3.2"/><text class="prea-label" x="64.00" y="626.00">TP1.1</text><circle class="prea-fixed-point" cx="120.00" cy="150.00" r="3.2"/><text class="prea-label" x="124.00" y="146.00">TP2.1</text><circle class="prea-fixed-point" cx="180.00" cy="30.00" r="3.2"/><text class="prea-label" x="184.00" y="26.00">TP3.1</text><circle class="prea-fixed-point" cx="240.00" cy="630.00" r="3.2"/><text class="prea-label" x="244.00" y="626.00">TP4.1</text><circle class="prea-fixed-point" cx="198.00" cy="630.00" r="3.2"/><text class="prea-label" x="202.00" y="626.00">TP5.1</text><text x="6" y="26" font-family="sans-serif" font-size="9" font-weight="bold" fill="#7c3aed">[Pre-A] YAML-defined physical connectivity + UV footprints (no routing)</text></svg>